<svg width="1107" height="240" fill="none" xmlns="http://www.w3.org/2000/svg"><path d="M325.852 92.904l40.147-16.655-33.73-1.223 1.623 5.716-8.206 6.73.166 5.432z" fill="#685ED6"/><path d="M366 76.248l-39.548 3.228-31.25 16.147L366 76.248z" fill="#18E1F7"/><path d="M332.27 75.025L366 76.25l-33.185-13.172-.545 11.948z" fill="#18E1F7"/><path d="M304.5 70.5c-22.5-6.5-30.6-24.4-69-32-38.4-7.6-60.833 5.167-67.5 11" stroke="#18E1F7" stroke-linecap="round" stroke-linejoin="round" stroke-dasharray="5 7"/><path d="M369 98c9 11 33.5 27.8 63.5 31 30 3.2 54.167 1.333 62.5 0" stroke="#33AFE1" stroke-linecap="round" stroke-linejoin="round" stroke-dasharray="5 7"/><path d="M756.217 63.601l51.066-4.496-39.65-18.52.698 9.18-11.149 5.794-.965 8.042z" fill="#685ED6"/><path d="M807.284 59.104l-47.486-14.882-40.43 8.163 87.916 6.719z" fill="#18E1F7"/><path d="M767.634 40.585l39.65 18.52-36.451-35.76-3.199 17.24z" fill="#18E1F7"/><path d="M744.5 33c-40-17-60.1-6.5-78.5 11.5-23 22.5-2 76-57 72.5m215-49c12.833 8.833 53.5 24.5 106.5 9" stroke="#685ED6" stroke-linecap="round" stroke-linejoin="round" stroke-dasharray="5 7"/></svg>